# xmcd
#
# Track frame offsets:
#	150
#	17677
#	37795
#	64542
#	90035
#	114102
#	142107
#	169345
#	197497
#
# Disc length: 2899 seconds
#
# Revision: 0
# Processed by: cddbd v1.4PL0 Copyright (c) Steve Scherf et al.
# Submitted via: dBpowerAMP V4.0
#
DISCID=620b5109
DTITLE=SAKANA - Little Swallow
DYEAR=2000
DGENRE=Blues
TTITLE0=Little Swallow
TTITLE1=Rocking Chair II
TTITLE2=gypsy
TTITLE3=Sunset Dave
TTITLE4=Happy Tuesday
TTITLE5=fan
TTITLE6=gypsy [JIM O'ROUKE Remix]
TTITLE7=Little Swallow [JIM O'ROUKE Remix]
TTITLE8=Rocking Chair II [SAKANA Other version]
EXTD=
EXTT0=
EXTT1=
EXTT2=
EXTT3=
EXTT4=
EXTT5=
EXTT6=
EXTT7=
EXTT8=
PLAYORDER=
